<?xml version="1.0" encoding="utf-8"?>
<!-- Generator: Adobe Illustrator 16.0.3, SVG Export Plug-In . SVG Version: 6.00 Build 0)  -->
<!DOCTYPE svg PUBLIC "-//W3C//DTD SVG 1.1//EN" "http://www.w3.org/Graphics/SVG/1.1/DTD/svg11.dtd">
<svg version="1.1" id="Layer_1" xmlns="http://www.w3.org/2000/svg" xmlns:xlink="http://www.w3.org/1999/xlink" x="0px" y="0px"
	 width="31.879px" height="32px" viewBox="0 0 31.879 32" enable-background="new 0 0 31.879 32" xml:space="preserve">
<linearGradient id="SVGID_1_" gradientUnits="userSpaceOnUse" x1="-611.4253" y1="406.4277" x2="-610.8408" y2="405.7203" gradientTransform="matrix(31.8754 0 0 -28.4068 19496.6953 11545.4326)">
	<stop  offset="0" style="stop-color:#41D1FF"/>
	<stop  offset="1" style="stop-color:#16006A"/>
</linearGradient>
<path fill="url(#SVGID_1_)" d="M31.772,4.724L16.799,31.499c-0.31,0.553-1.104,0.556-1.418,0.006L0.111,4.727
	c-0.342-0.6,0.17-1.326,0.85-1.204l14.989,2.679c0.096,0.018,0.194,0.017,0.289,0l14.677-2.675
	C31.593,3.402,32.108,4.123,31.772,4.724z"/>
<linearGradient id="SVGID_2_" gradientUnits="userSpaceOnUse" x1="-597.124" y1="405.6152" x2="-597.0547" y2="404.7478" gradientTransform="matrix(14.6164 0 0 -26.6459 8745.6133 10808.5029)">
	<stop  offset="0" style="stop-color:#FFEA83"/>
	<stop  offset="0.0833" style="stop-color:#FFDD35"/>
	<stop  offset="1" style="stop-color:#FA0027"/>
</linearGradient>
<path fill="url(#SVGID_2_)" d="M23.09,0.008L12.01,2.179c-0.182,0.036-0.317,0.19-0.328,0.375l-0.682,11.512
	c-0.014,0.225,0.158,0.417,0.382,0.43c0.039,0.002,0.078-0.001,0.116-0.009l3.085-0.712c0.289-0.066,0.549,0.188,0.49,0.478
	l-0.917,4.488c-0.062,0.302,0.222,0.561,0.517,0.471l1.906-0.579c0.296-0.09,0.579,0.17,0.517,0.472l-1.457,7.05
	c-0.091,0.441,0.496,0.682,0.74,0.304l0.164-0.253l9.029-18.019c0.15-0.302-0.109-0.646-0.441-0.582l-3.176,0.613
	c-0.298,0.058-0.552-0.22-0.468-0.512l2.073-7.185C23.645,0.228,23.389-0.051,23.09,0.008L23.09,0.008z"/>
</svg>
